<svg xmlns="http://www.w3.org/2000/svg" xmlns:xlink="http://www.w3.org/1999/xlink" width="500" zoomAndPan="magnify" viewBox="0 0 375 374.999991" height="500" preserveAspectRatio="xMidYMid meet" version="1.0">
  <defs>
    <g/>
  </defs>
  <g fill="#ffffff" fill-opacity="1">
    <g transform="translate(88.104615, 272.070783)">
      <g>
        <path d="M 121.34375 -180.03125 L 31.578125 -180.03125 L 31.578125 -98.703125 L 120.546875 -98.703125 L 120.546875 -91.859375 L 31.578125 -91.859375 L 31.578125 -6.84375 L 125.8125 -6.84375 L 124.5 0 L 23.6875 0 L 23.6875 -186.875 L 121.34375 -186.875 Z M 121.34375 -180.03125 " fill="#ffffff" fill-opacity="1" stroke="#ffffff" stroke-width="10"/>
      </g>
    </g>
  </g>
  <g fill="#ffffff" fill-opacity="1">
    <g transform="translate(141.019111, 272.046934)">
      <g>
        <path d="M 23.703125 0 L 23.703125 -187.046875 L 64.015625 -187.046875 C 135.316406 -187.046875 170.96875 -156.132812 170.96875 -94.3125 C 170.96875 -64.101562 162.316406 -40.832031 145.015625 -24.5 C 127.722656 -8.164062 102.390625 0 69.015625 0 Z M 31.875 -7.109375 L 68.234375 -7.109375 C 131.109375 -7.109375 162.546875 -36.175781 162.546875 -94.3125 C 162.546875 -123.113281 154.597656 -144.582031 138.703125 -158.71875 C 122.804688 -172.851562 98.347656 -179.921875 65.328125 -179.921875 L 31.875 -179.921875 Z M 31.875 -7.109375 " fill="#ffffff" fill-opacity="1" stroke="#ffffff" stroke-width="10"/>
      </g>
    </g>
  </g>
</svg>
